# xmcd
#
# Track frame offsets: 
#        150
#        24071
#        53661
#        81925
#        103205
#        132644
#        161684
#        185002
#        216451
#        243261
#
# Disc length: 3615 seconds
#
# Revision: 2
# Processed by: cddbd v1.5.2PL0 Copyright (c) Steve Scherf et al.
# Submitted via: ExactAudioCopyFreeDBPlugin 1.0
#
DISCID=8a0e1d0a
DTITLE=Dave Young - Tale Of The Fingers
DYEAR=2000
DGENRE=Jazz
TTITLE0=Bremond's Blues
TTITLE1=Just In Time
TTITLE2=Sweet And Lovely
TTITLE3=Tale Of The Fingers
TTITLE4=Lost In The Stars
TTITLE5=Down The Middle
TTITLE6=Keep It Moving
TTITLE7=The Night Is Long
TTITLE8=A Bell For Bags
TTITLE9=Ode To The Southwest
EXTD=YEAR: 2000
EXTT0=
EXTT1=
EXTT2=
EXTT3=
EXTT4=
EXTT5=
EXTT6=
EXTT7=
EXTT8=
EXTT9=
PLAYORDER=
